<mxfile host="app.diagrams.net" modified="2022-09-01T13:43:55.335Z" agent="5.0 (Windows NT 10.0; Win64; x64) AppleWebKit/537.36 (KHTML, like Gecko) Chrome/104.0.0.0 Safari/537.36" etag="5Z425mSyw5o-oqn7x7bT" version="20.2.7" type="github">
  <diagram id="R87KiWqTwlpfnuM9Kmfx" name="Página-1">
    <mxGraphModel dx="868" dy="481" grid="1" gridSize="10" guides="1" tooltips="1" connect="1" arrows="1" fold="1" page="1" pageScale="1" pageWidth="827" pageHeight="1169" math="0" shadow="0">
      <root>
        <mxCell id="0" />
        <mxCell id="1" parent="0" />
        <mxCell id="x1E2nYI0Q79uI072DUFp-12" style="edgeStyle=orthogonalEdgeStyle;rounded=0;orthogonalLoop=1;jettySize=auto;html=1;exitX=0.5;exitY=1;exitDx=0;exitDy=0;entryX=0.5;entryY=0;entryDx=0;entryDy=0;" edge="1" parent="1" source="x1E2nYI0Q79uI072DUFp-1">
          <mxGeometry relative="1" as="geometry">
            <mxPoint x="340" y="80" as="targetPoint" />
          </mxGeometry>
        </mxCell>
        <mxCell id="x1E2nYI0Q79uI072DUFp-1" value="inicio&lt;br&gt;" style="rounded=1;whiteSpace=wrap;html=1;" vertex="1" parent="1">
          <mxGeometry x="280" width="120" height="60" as="geometry" />
        </mxCell>
        <mxCell id="x1E2nYI0Q79uI072DUFp-15" style="edgeStyle=orthogonalEdgeStyle;rounded=0;orthogonalLoop=1;jettySize=auto;html=1;exitX=0.5;exitY=1;exitDx=0;exitDy=0;" edge="1" parent="1" source="x1E2nYI0Q79uI072DUFp-5" target="x1E2nYI0Q79uI072DUFp-13">
          <mxGeometry relative="1" as="geometry" />
        </mxCell>
        <mxCell id="x1E2nYI0Q79uI072DUFp-5" value="&amp;nbsp;mp: (1 + 2 + 3 +4)/10" style="rounded=0;whiteSpace=wrap;html=1;" vertex="1" parent="1">
          <mxGeometry x="280" y="180" width="120" height="60" as="geometry" />
        </mxCell>
        <mxCell id="x1E2nYI0Q79uI072DUFp-10" style="edgeStyle=orthogonalEdgeStyle;rounded=0;orthogonalLoop=1;jettySize=auto;html=1;exitX=0.5;exitY=1;exitDx=0;exitDy=0;" edge="1" parent="1" target="x1E2nYI0Q79uI072DUFp-5">
          <mxGeometry relative="1" as="geometry">
            <mxPoint x="340" y="140" as="sourcePoint" />
          </mxGeometry>
        </mxCell>
        <mxCell id="x1E2nYI0Q79uI072DUFp-17" value="" style="edgeStyle=orthogonalEdgeStyle;rounded=0;orthogonalLoop=1;jettySize=auto;html=1;" edge="1" parent="1" source="x1E2nYI0Q79uI072DUFp-13" target="x1E2nYI0Q79uI072DUFp-16">
          <mxGeometry relative="1" as="geometry" />
        </mxCell>
        <mxCell id="x1E2nYI0Q79uI072DUFp-13" value="mp = 1&lt;br&gt;" style="shape=document;whiteSpace=wrap;html=1;boundedLbl=1;" vertex="1" parent="1">
          <mxGeometry x="280" y="260" width="120" height="80" as="geometry" />
        </mxCell>
        <mxCell id="x1E2nYI0Q79uI072DUFp-14" value="n°: 1,2,3,4" style="shape=card;whiteSpace=wrap;html=1;" vertex="1" parent="1">
          <mxGeometry x="280" y="80" width="120" height="70" as="geometry" />
        </mxCell>
        <mxCell id="x1E2nYI0Q79uI072DUFp-16" value="fim" style="rounded=1;whiteSpace=wrap;html=1;" vertex="1" parent="1">
          <mxGeometry x="280" y="370" width="120" height="60" as="geometry" />
        </mxCell>
      </root>
    </mxGraphModel>
  </diagram>
</mxfile>
